<?xml version="1.0"?>
<svg width="128" height="128" xmlns="http://www.w3.org/2000/svg" xmlns:svg="http://www.w3.org/2000/svg" preserveAspectRatio="xMidYMid meet" version="1.0">
 <g class="layer">
  <title>Layer 1</title>
  <g fill="#000000" id="svg_1" transform="translate(0.000000,128.000000) scale(0.100000,-0.100000)">
   <path d="m606,983c-3,-3 -6,-11 -6,-17c0,-6 5,-4 10,4c17,26 11,0 -25,-111c-19,-60 -35,-115 -35,-124c0,-8 -5,-15 -10,-15c-11,0 -6,29 17,94c7,21 13,44 13,50c0,17 -83,-137 -85,-158c-1,-11 -7,-22 -13,-24c-7,-2 -10,2 -9,10c2,7 2,10 0,6c-3,-5 -14,-8 -26,-9c-20,-1 -20,-2 3,-9c27,-9 26,-9 -6,-16c-15,-2 -23,2 -27,15c-6,24 -88,33 -134,15c-30,-12 -33,-11 -33,5c0,10 7,39 14,66c13,41 13,51 1,68c-13,18 -14,18 -30,-14c-17,-31 -18,-32 -31,-14c-8,10 -14,24 -14,29c0,6 -5,4 -10,-4c-5,-8 -13,-15 -17,-15c-4,0 -19,-8 -33,-18c-13,-9 -20,-17 -16,-17c5,0 18,7 28,17c10,9 18,12 18,7c0,-19 -25,-34 -56,-34c-47,0 -94,-11 -94,-23c0,-6 23,-7 68,-2c37,4 81,7 99,7c24,0 30,4 27,17c-2,9 2,3 10,-14c8,-16 15,-43 16,-58l0,-29l-65,7l-65,7l0,-26c0,-18 5,-26 17,-26c16,0 16,-1 0,-13c-13,-9 -16,-20 -11,-45c5,-27 11,-32 35,-32c15,0 31,5 34,10c7,12 42,13 48,3c3,-5 3,-22 0,-39l-5,-31l-86,2c-79,1 -87,3 -88,21c-1,10 -7,31 -13,47c-9,22 -8,27 4,27c17,0 19,14 5,39c-5,10 -10,37 -11,59c-2,23 -7,42 -12,42c-4,0 -7,-57 -5,-127l3,-128l149,-3c106,-2 153,1 163,10c12,10 14,9 11,-7c-1,-10 4,-20 12,-22c12,-4 12,-3 1,5c-9,7 1,9 33,8c30,-1 50,-7 56,-16c8,-12 13,-13 30,-2c17,11 20,10 20,-7c0,-15 -5,-18 -22,-14c-13,3 -20,3 -17,0c3,-4 16,-8 29,-10c13,-2 26,-10 28,-17c3,-8 0,-10 -9,-5c-8,5 -11,4 -6,-1c5,-5 12,-9 17,-9c4,0 16,-10 26,-23c11,-13 35,-27 54,-31c19,-4 45,-11 58,-15c14,-5 22,-3 22,4c0,6 -5,8 -12,4c-7,-5 3,10 21,32c30,36 37,39 57,30c18,-9 20,-14 11,-26c-9,-12 8,0 43,29c3,2 -3,1 -13,-2c-12,-5 -6,8 19,38c41,50 59,55 23,6c-24,-33 -21,-48 8,-36c10,5 22,7 26,6c4,-1 3,8 -3,19c-8,16 -6,24 10,40c13,13 26,18 33,13c7,-4 98,-6 202,-3l190,5l3,39c2,22 -2,50 -8,62c-9,16 -9,27 -1,42c6,11 11,48 11,81c0,54 -2,61 -20,61c-24,0 -24,0 -6,35l14,28l5,-29c3,-25 4,-24 6,9c0,20 -2,37 -5,37c-3,0 -19,-13 -36,-30c-16,-16 -38,-30 -49,-30c-42,0 -60,-19 -53,-54c5,-27 2,-34 -14,-38c-14,-4 -24,3 -36,23c-15,25 -23,29 -60,29c-42,0 -44,-1 -50,-35c-4,-20 -4,-56 0,-80c4,-31 3,-45 -5,-45c-6,0 -11,9 -11,20c0,10 -8,27 -18,37c-10,10 -23,31 -30,47c-11,25 -16,28 -44,22c-17,-3 -36,-13 -42,-21c-9,-13 -14,-12 -30,10c-17,22 -20,23 -31,9c-10,-14 -17,-2 -45,72c-36,99 -49,121 -60,104c-4,-6 -12,16 -19,49c-12,59 -22,77 -35,64zm-426,-194c0,-11 -4,-18 -10,-14c-5,3 -7,12 -3,20c7,21 13,19 13,-6zm57,-31c-3,-7 -5,-2 -5,12c0,14 2,19 5,13c2,-7 2,-19 0,-25zm977,-23c3,-8 15,-15 26,-15c21,0 26,-10 11,-25c-9,-10 -30,-125 -28,-158c0,-13 6,-16 21,-11c21,7 21,6 3,-14c-11,-11 -37,-24 -59,-27c-35,-6 -44,-3 -79,24l-39,32l0,-31c0,-29 -4,-32 -45,-32c-34,0 -38,2 -25,17c9,10 9,15 1,15c-6,0 -11,7 -11,15c0,8 5,15 11,15c8,0 10,26 5,90c-7,87 -7,90 13,90c12,0 21,-5 21,-11c0,-5 4,-8 9,-5c5,3 24,-19 42,-49c18,-30 37,-55 41,-55c9,0 22,63 22,113c1,33 3,37 27,37c15,0 29,-7 33,-15zm-820,-69c3,-12 1,-25 -4,-30c-4,-4 -6,-14 -4,-21c3,-7 -4,-19 -15,-27c-19,-14 -19,-15 15,-50c40,-43 42,-54 12,-62c-16,-4 -27,0 -35,12c-18,26 -46,52 -55,52c-8,0 -12,-23 -9,-48c2,-9 -7,-12 -26,-10c-28,3 -28,4 -25,67c2,48 -1,68 -14,82c-18,20 -21,17 58,47c10,4 35,7 57,7c32,1 41,-3 45,-19zm178,12c17,1 26,-22 20,-50c-4,-19 -52,-26 -52,-8c0,14 -33,13 -48,-2c-18,-18 -15,-39 6,-36c11,2 17,-3 17,-17c0,-14 -6,-19 -19,-17c-11,2 -17,-1 -14,-10c7,-20 47,-22 68,-3c17,16 19,15 30,-5c18,-34 -3,-50 -66,-50c-50,0 -56,2 -74,33c-14,23 -19,44 -16,72c3,22 5,41 5,42c1,0 22,15 48,32c28,19 53,29 63,25c8,-4 22,-6 32,-6zm137,-8c27,0 61,-64 61,-114c0,-59 -23,-76 -106,-76l-61,0l9,63c5,34 7,76 4,94c-5,36 5,44 48,38c16,-3 36,-5 45,-5zm192,-17c5,-16 16,-41 24,-58c8,-16 17,-42 20,-57c3,-16 12,-28 20,-28c13,0 13,-3 3,-20c-15,-23 -50,-26 -67,-6c-19,23 -49,26 -54,5c-4,-13 -14,-19 -34,-19c-16,0 -32,3 -35,6c-8,8 22,94 32,94c5,0 16,25 25,55c12,43 20,55 36,55c12,0 23,-10 30,-27zm226,-15c-3,-7 -5,-2 -5,12c0,14 2,19 5,13c2,-7 2,-19 0,-25zm-320,-10c-3,-8 -6,-5 -6,6c-1,11 2,17 5,13c3,-3 4,-12 1,-19zm-629,-10c3,-14 -3,-18 -28,-18c-26,0 -30,3 -21,13c6,8 7,17 3,21c-4,5 4,6 18,4c14,-1 26,-11 28,-20z" fill="#7f0000" id="svg_2"/>
   <path d="m294,619c-3,-6 -1,-16 5,-22c9,-9 14,-8 21,3c9,15 4,30 -10,30c-5,0 -12,-5 -16,-11z" fill="#7f0000" id="svg_3"/>
   <path d="m670,560c0,-34 3,-36 25,-14c12,12 13,19 4,30c-18,22 -29,16 -29,-16z" fill="#7f0000" id="svg_4"/>
   <path d="m866,581c-4,-7 -5,-15 -2,-18c9,-9 19,4 14,18c-4,11 -6,11 -12,0z" fill="#7f0000" id="svg_5"/>
   <path d="m736,924c-8,-56 10,-137 28,-131c19,6 18,59 -2,122l-19,60l-7,-51z" fill="#7f0000" id="svg_6"/>
   <path d="m760,951c0,-11 4,-22 9,-25c4,-3 6,6 3,19c-5,30 -12,33 -12,6z" fill="#7f0000" id="svg_7"/>
   <path d="m586,933c-6,-14 -5,-15 5,-6c7,7 10,15 7,18c-3,3 -9,-2 -12,-12z" fill="#7f0000" id="svg_8"/>
   <path d="m650,937c0,-10 9,-27 20,-39c11,-12 34,-58 52,-104c18,-45 36,-80 40,-78c4,3 3,13 -2,22c-16,31 -44,126 -43,152c1,16 -1,19 -4,7c-7,-25 -23,-17 -45,23c-11,22 -18,28 -18,17z" fill="#7f0000" id="svg_9"/>
   <path d="m555,899c-4,-5 -4,-13 -1,-16c3,-4 6,0 6,8c0,11 2,11 10,-1c6,-9 10,-10 10,-3c0,17 -17,25 -25,12z" fill="#7f0000" id="svg_10"/>
   <path d="m781,894c0,-11 3,-14 6,-6c3,7 2,16 -1,19c-3,4 -6,-2 -5,-13z" fill="#7f0000" id="svg_11"/>
   <path d="m192,829c2,-6 8,-10 13,-10c5,0 11,4 13,10c2,6 -4,11 -13,11c-9,0 -15,-5 -13,-11z" fill="#7f0000" id="svg_12"/>
   <path d="m1190,790c-9,-6 -10,-10 -3,-10c6,0 15,5 18,10c8,12 4,12 -15,0z" fill="#7f0000" id="svg_13"/>
   <path d="m485,759c-9,-17 -15,-33 -13,-35c3,-2 12,12 21,31c21,43 13,47 -8,4z" fill="#7f0000" id="svg_14"/>
   <path d="m261,748c0,-9 -4,-23 -7,-31c-4,-12 0,-14 16,-10c12,3 17,9 12,12c-5,3 -12,15 -15,26c-3,15 -5,16 -6,3z" fill="#7f0000" id="svg_15"/>
   <path d="m327,719c7,-7 15,-10 18,-7c3,3 -2,9 -12,12c-14,6 -15,5 -6,-5z" fill="#7f0000" id="svg_16"/>
   <path d="m961,714c0,-11 3,-14 6,-6c3,7 2,16 -1,19c-3,4 -6,-2 -5,-13z" fill="#7f0000" id="svg_17"/>
   <path d="m368,713c6,-2 18,-2 25,0c6,3 1,5 -13,5c-14,0 -19,-2 -12,-5z" fill="#7f0000" id="svg_18"/>
   <path d="m878,713c6,-2 18,-2 25,0c6,3 1,5 -13,5c-14,0 -19,-2 -12,-5z" fill="#7f0000" id="svg_19"/>
   <path d="m1097,704c3,-8 10,-13 15,-12c16,6 14,21 -4,24c-11,1 -15,-3 -11,-12z" fill="#7f0000" id="svg_20"/>
   <path d="m800,701c0,-5 5,-13 10,-16c6,-3 10,-2 10,4c0,5 -4,13 -10,16c-5,3 -10,2 -10,-4z" fill="#7f0000" id="svg_21"/>
   <path d="m920,687c0,-15 20,-47 30,-47c6,0 10,7 10,16c0,8 -4,13 -9,9c-6,-3 -14,3 -20,12c-6,10 -11,14 -11,10z" fill="#7f0000" id="svg_22"/>
   <path d="m168,443c6,-2 18,-2 25,0c6,3 1,5 -13,5c-14,0 -19,-2 -12,-5z" fill="#7f0000" id="svg_23"/>
   <path d="m395,440c3,-5 11,-10 16,-10c6,0 7,5 4,10c-3,6 -11,10 -16,10c-6,0 -7,-4 -4,-10z" fill="#7f0000" id="svg_24"/>
   <path d="m855,439c-11,-16 -1,-19 13,-3c7,8 8,14 3,14c-5,0 -13,-5 -16,-11z" fill="#7f0000" id="svg_25"/>
   <path d="m1018,443c12,-2 32,-2 45,0c12,2 2,4 -23,4c-25,0 -35,-2 -22,-4z" fill="#7f0000" id="svg_26"/>
   <path d="m1108,443c7,-3 16,-2 19,1c4,3 -2,6 -13,5c-11,0 -14,-3 -6,-6z" fill="#7f0000" id="svg_27"/>
   <path d="m683,348c-14,-23 -12,-37 5,-31c11,5 13,3 7,-8c-6,-11 -5,-12 5,-2c20,18 23,53 6,53c-8,0 -18,-6 -23,-12z" fill="#7f0000" id="svg_28"/>
   <path d="m578,303c7,-3 16,-2 19,1c4,3 -2,6 -13,5c-11,0 -14,-3 -6,-6z" fill="#7f0000" id="svg_29"/>
  </g>
 </g>
</svg>